<?xml version="1.0" encoding="utf-8"?>
<!-- Svg Vector Icons : http://www.onlinewebfonts.com/icon -->
<!DOCTYPE svg PUBLIC "-//W3C//DTD SVG 1.1//EN" "http://www.w3.org/Graphics/SVG/1.1/DTD/svg11.dtd">
<svg version="1.1" xmlns="http://www.w3.org/2000/svg" xmlns:xlink="http://www.w3.org/1999/xlink" x="0px" y="0px" viewBox="0 0 1000 1000" enable-background="new 0 0 1000 1000" xml:space="preserve">
<metadata> Svg Vector Icons : http://www.onlinewebfonts.com/icon </metadata>
<g><g><path d="M822.3,54.9l-310-1.4L500,53.4l-12.3,0.1l-310,1.4L10,354.6l479.7,579.6l10.3,12.5l10.3-12.5L990,354.6L822.3,54.9z M477.9,76.9l-178,254.5L201.7,78.2L477.9,76.9z M182.7,94.1l96.6,249.1l-235.1-1.5L182.7,94.1z M49.2,365.2l238.9,1.5l177.4,501.5L49.2,365.2z M487,858.6L313.1,366.8l175,1.1L487,858.6z M488.2,344.4l-168-1l167.6-239.7l0.9-1.2l-0.4,196.6L488.2,344.4z M955.9,341.7l-235.1,1.4L817.3,94L955.9,341.7z M798.3,78.2l-98.2,253.2L522,76.9L798.3,78.2z M511.7,299.1l-0.4-196.6l0.9,1.2l167.6,239.7l-168,1L511.7,299.1z M511.9,367.9l175-1.1L513,858.6L511.9,367.9z M534.5,868.2l177.4-501.5l239-1.5L534.5,868.2z"/></g><g></g><g></g><g></g><g></g><g></g><g></g><g></g><g></g><g></g><g></g><g></g><g></g><g></g><g></g><g></g></g>
</svg>