<?xml version="1.0" encoding="utf-8"?>
<!-- Svg Vector Icons : http://www.onlinewebfonts.com/icon -->
<!DOCTYPE svg PUBLIC "-//W3C//DTD SVG 1.1//EN" "http://www.w3.org/Graphics/SVG/1.1/DTD/svg11.dtd">
<svg version="1.1" xmlns="http://www.w3.org/2000/svg" xmlns:xlink="http://www.w3.org/1999/xlink" x="0px" y="0px" viewBox="0 0 1000 1000" enable-background="new 0 0 1000 1000" xml:space="preserve">
<metadata> Svg Vector Icons : http://www.onlinewebfonts.com/icon </metadata>
<g><path d="M300,426.6h411L513.4,924.4L300,426.6L300,426.6z M347.1,249.2h313.1L715.7,373H309.3L347.1,249.2L347.1,249.2z M257.5,366.5L10,263.1l133-98.8l158.9,82.2L257.5,366.5L257.5,366.5z M10,323.1l234.6,103.4L500,924.4L10,323.1L10,323.1z M770.2,426.6L990,313L528.9,924.4L770.2,426.6L770.2,426.6z M765.6,365.6l-61.9-127.5L845,159.6l121.9,102.5L765.6,365.6L765.6,365.6z M342.5,188.3l-53.6-13.9l-100.7-56.3l118.2-42.5h386.1l117.3,49L697.2,179l-37.9,9.2H342.5L342.5,188.3z"/></g>
</svg>